<?xml version="1.0" encoding="UTF-8"?>
<svg width="752pt" height="752pt" version="1.1" viewBox="0 0 752 752" xmlns="http://www.w3.org/2000/svg">
 <g fill="#fff">
  <path d="m450.3 308.56-102.67 102.62-45.938-45.938c-5.918-5.918-15.582-5.918-21.5 0-5.918 5.918-5.918 15.582 0 21.5l56.688 56.688c2.9844 2.9844 6.8672 4.4531 10.75 4.4531 3.8828 0 7.7656-1.4688 10.75-4.4531l113.43-113.38c5.918-5.918 5.918-15.582 0-21.5-5.9688-5.9648-15.582-5.9648-21.504 0z"/>
  <path d="m376 186.57c-104.47 0-189.43 84.961-189.43 189.43s84.961 189.43 189.43 189.43 189.43-84.961 189.43-189.43-84.961-189.43-189.43-189.43zm0 348.46c-87.66 0-159.03-71.32-159.03-159.03 0-87.711 71.367-159.03 159.03-159.03s159.03 71.32 159.03 159.03-71.371 159.03-159.03 159.03z"/>
 </g>
</svg>
